<svg width="100" height="96" viewBox="0 0 100 96" fill="none" xmlns="http://www.w3.org/2000/svg">
<path d="M34.8359 3.15749C24.8444 6.485 16.2277 12.8007 10.2515 21.177C4.27529 29.5533 1.25461 39.5486 1.63313 49.6947C2.01165 59.8409 5.76943 69.6031 12.3545 77.5475C18.9396 85.4919 28.0048 91.1997 38.2187 93.8325C46.4994 95.8837 55.1751 95.9738 63.5 94.095C71.0415 92.4688 78.0139 88.9902 83.7344 84C89.6881 78.6476 94.0097 71.8386 96.2344 64.305C98.6525 56.1125 99.0828 47.497 97.4922 39.12H50.9922V57.6375H77.9219C77.3836 60.5909 76.2303 63.4097 74.5308 65.9252C72.8314 68.4408 70.6208 70.6013 68.0312 72.2775C64.7428 74.3657 61.0359 75.7708 57.1484 76.4025C53.2495 77.0985 49.2504 77.0985 45.3515 76.4025C41.3999 75.6182 37.6617 74.0524 34.375 71.805C29.0949 68.2169 25.1303 63.1194 23.0469 57.24C20.9282 51.2504 20.9282 44.757 23.0469 38.7675C24.5299 34.5691 26.9815 30.7465 30.2187 27.585C33.9234 23.9006 38.6135 21.267 43.7746 19.9731C48.9358 18.6792 54.3684 18.775 59.4765 20.25C63.4669 21.4259 67.116 23.4805 70.1328 26.25C73.1693 23.35 76.2005 20.4425 79.2266 17.5275C80.7891 15.96 82.4922 14.4675 84.0312 12.8625C79.4263 8.74856 74.0209 5.54741 68.125 3.44249C57.3883 -0.30009 45.6404 -0.400669 34.8359 3.15749Z" fill="white"/>
<path d="M34.8359 3.15747C45.6396 -0.403104 57.3874 -0.305174 68.125 3.43497C74.022 5.5542 79.4249 8.77075 84.0234 12.9C82.4609 14.505 80.8125 16.005 79.2187 17.565C76.1875 20.47 73.1588 23.365 70.1328 26.25C67.116 23.4805 63.4669 21.4259 59.4766 20.25C54.3701 18.7698 48.9376 18.6684 43.7752 19.957C38.6127 21.2456 33.9196 23.8744 30.2109 27.555C26.9737 30.7165 24.5221 34.5391 23.0391 38.7375L6.84375 26.7C12.6407 15.6642 22.6777 7.22265 34.8359 3.15747Z" fill="#E33629"/>
<path d="M2.54685 38.625C3.41733 34.4834 4.86251 30.4726 6.84373 26.7L23.039 38.7675C20.9204 44.757 20.9204 51.2504 23.039 57.24C17.6432 61.24 12.2448 65.26 6.84373 69.3C1.88397 59.8223 0.371327 49.0237 2.54685 38.625Z" fill="#F8BD00"/>
<path d="M50.9922 39.1125H97.4922C99.0828 47.4895 98.6526 56.1051 96.2344 64.2976C94.0097 71.8311 89.6882 78.6401 83.7344 83.9925C78.5079 80.0775 73.2579 76.1925 68.0313 72.2775C70.6225 70.5996 72.8342 68.4368 74.5337 65.9185C76.2333 63.4003 77.3857 60.5786 77.9219 57.6225H50.9922C50.9844 51.4575 50.9922 45.285 50.9922 39.1125Z" fill="#587DBD"/>
<path d="M6.83594 69.3C12.237 65.3 17.6354 61.28 23.0312 57.24C25.1188 63.1215 29.0891 68.2192 34.375 71.805C37.6719 74.042 41.4182 75.595 45.375 76.365C49.2739 77.061 53.273 77.061 57.1719 76.365C61.0593 75.7333 64.7663 74.3282 68.0547 72.24C73.2813 76.155 78.5312 80.04 83.7578 83.955C78.0382 88.9479 71.0658 92.4291 63.5234 94.0575C55.1985 95.9363 46.5228 95.8462 38.2422 93.795C31.693 92.1163 25.5756 89.1569 20.2734 85.1025C14.6614 80.8251 10.0778 75.4348 6.83594 69.3Z" fill="#319F43"/>
</svg>
